<svg id="Capa_1" enable-background="new 0 0 511.88 511.88" height="512" viewBox="0 0 511.88 511.88" width="512" xmlns="http://www.w3.org/2000/svg"><g><path d="m296.745 135.469 75.845 361.411c0 8.281-6.713 15-15 15h-331.3c-8.28 0-15-6.721-15-15v-481.88c0-8.28 6.72-15 15-15h225.89z" fill="#e6f1ff"/><path d="m372.59 120.41v376.47c0 8.281-6.713 15-15 15h-165.83v-511.88h60.42l22.53 84.514z" fill="#d5e8fe"/><path d="m372.59 120.41h-105.41c-8.284 0-15-6.716-15-15v-105.41z" fill="#b5dbff"/><path d="m470.47 316.174v180.7c0 8.279-6.71 15-15 15h-30.29l-13.08-13.24-16.92 13.24h-45.18l-12.79-10.851-17.21 10.851h-30.17c-8.29 0-15-6.721-15-15v-180.7c0-8.28 6.71-15 15-15h165.64c8.29 0 15 6.72 15 15z" fill="#195d80"/><path d="m470.47 316.174v180.7c0 8.279-6.71 15-15 15h-30.29l-13.08-13.24-16.92 13.24h-22.59v-210.7h82.88c8.29 0 15 6.72 15 15z" fill="#143d66"/><path d="m372.65 195.814c-24.87 0-45.12 20.23-45.12 45.12v30.12c0 8.28 6.72 15 15 15h60.24c8.28 0 15-6.72 15-15v-30.12c0-24.88-45.12-45.12-45.12-45.12zm15.12 65.886h-30.24v-20.766c0-8.294 6.734-15.12 15.12-15.12 8.34 0 15.12 6.78 15.12 15.12z" fill="#195d80"/><path d="m417.77 240.934v30.12c0 8.28-6.72 15-15 15h-30.18v-25.716l15.339.511-.159-19.915c0-8.188-6.604-15.12-15.18-15.12v-30c24.88 0 45.18 20.24 45.18 45.12z" fill="#143d66"/><path d="m500.59 270.934v45.24c0 8.279-6.72 15-15 15h-225.88c-8.29 0-15-6.721-15-15v-45.24c0-8.28 6.71-15 15-15h225.88c8.28 0 15 6.72 15 15z" fill="#143d66"/><path d="m500.59 270.934v45.24c0 8.279-6.72 15-15 15h-113v-75.24h113c8.28 0 15 6.72 15 15z" fill="#102840"/><path d="m350.003 398.993v112.881h-30v-112.881c0-8.29 6.72-15 15-15 8.29 0 15 6.71 15 15z" fill="#143d66"/><path d="m425.179 398.993v112.881h-30v-112.881c0-8.29 6.71-15 15-15 8.28 0 15 6.71 15 15z" fill="#102840"/><g fill="#ff448e"><path d="m176.765 90.234h-90.236c-8.284 0-15-6.716-15-15s6.716-15 15-15h90.235c8.284 0 15 6.716 15 15s-6.715 15-14.999 15z"/><path d="m176.765 150.469h-90.236c-8.284 0-15-6.716-15-15s6.716-15 15-15h90.235c8.284 0 15 6.716 15 15s-6.715 15-14.999 15z"/><path d="m176.765 210.646h-90.236c-8.284 0-15-6.716-15-15s6.716-15 15-15h90.235c8.284 0 15 6.716 15 15s-6.715 15-14.999 15z"/><path d="m176.883 270.94h-90.354c-8.284 0-15-6.716-15-15s6.716-15 15-15h90.354c8.284 0 15 6.716 15 15s-6.716 15-15 15z"/><path d="m176.883 331.175h-90.354c-8.284 0-15-6.716-15-15s6.716-15 15-15h90.354c8.284 0 15 6.716 15 15s-6.716 15-15 15z"/></g></g></svg>